<svg width="78" height="85" viewBox="0 0 78 85" fill="none" xmlns="http://www.w3.org/2000/svg">
<path d="M75.7031 37.1874C75.7031 35.4262 75.0035 33.7371 73.7581 32.4918C72.5128 31.2464 70.8237 30.5468 69.0625 30.5468H43.8281V25.138C46.0406 24.8186 48.064 23.7128 49.5275 22.023C50.991 20.3333 51.7966 18.1728 51.7969 15.9374C51.7969 7.3577 43.5857 1.78289 43.2371 1.55047C43.0189 1.40486 42.7624 1.32715 42.5 1.32715C42.2376 1.32715 41.9811 1.40486 41.7629 1.55047C41.4143 1.78289 33.2031 7.3577 33.2031 15.9374C33.2034 18.1728 34.009 20.3333 35.4725 22.023C36.936 23.7128 38.9594 24.8186 41.1719 25.138V30.5468H15.9375C14.1763 30.5468 12.4872 31.2464 11.2419 32.4918C9.99651 33.7371 9.29688 35.4262 9.29688 37.1874V44.9337C9.29807 47.6965 10.2343 50.3775 11.9531 52.5405V66.4061C11.9531 68.1673 12.6528 69.8564 13.8981 71.1018C15.1435 72.3471 16.8325 73.0468 18.5938 73.0468H66.4062C68.1675 73.0468 69.8565 72.3471 71.1019 71.1018C72.3472 69.8564 73.0469 68.1673 73.0469 66.4061V52.5405C74.7657 50.3775 75.7019 47.6965 75.7031 44.9337V37.1874ZM35.8594 15.9374C35.8594 10.1634 40.6307 5.80047 42.5 4.31629C44.3693 5.80379 49.1406 10.1667 49.1406 15.9374C49.1406 17.6986 48.441 19.3877 47.1956 20.633C45.9503 21.8784 44.2612 22.578 42.5 22.578C40.7388 22.578 39.0497 21.8784 37.8044 20.633C36.559 19.3877 35.8594 17.6986 35.8594 15.9374ZM66.4062 70.3905H18.5938C17.537 70.3905 16.5236 69.9707 15.7764 69.2235C15.0292 68.4763 14.6094 67.4629 14.6094 66.4061V55.0274C16.4663 56.3177 18.6579 57.0409 20.918 57.1093C23.1671 57.1671 25.3871 56.5913 27.3246 55.4476C29.2621 54.3039 30.8389 52.6384 31.875 50.6413C32.8806 52.5924 34.404 54.2289 36.2782 55.3715C38.1524 56.514 40.305 57.1184 42.5 57.1184C44.695 57.1184 46.8476 56.514 48.7218 55.3715C50.596 54.2289 52.1194 52.5924 53.125 50.6413C54.1356 52.5876 55.6604 54.2196 57.5337 55.36C59.407 56.5003 61.557 57.1053 63.75 57.1093H64.082C66.3418 57.0419 68.5334 56.3198 70.3906 55.0307V66.4061C70.3906 67.4629 69.9708 68.4763 69.2236 69.2235C68.4764 69.9707 67.463 70.3905 66.4062 70.3905ZM73.0469 44.9337C73.0469 50.0436 68.9928 54.3136 64.0123 54.4497C62.7698 54.4848 61.5329 54.2703 60.3747 53.819C59.2165 53.3678 58.1606 52.6888 57.2694 51.8224C56.3782 50.9559 55.6697 49.9195 55.186 48.7745C54.7023 47.6295 54.4531 46.3991 54.4531 45.1561C54.4531 44.8039 54.3132 44.4661 54.0641 44.217C53.8151 43.9679 53.4772 43.828 53.125 43.828C52.7728 43.828 52.4349 43.9679 52.1859 44.217C51.9368 44.4661 51.7969 44.8039 51.7969 45.1561C51.7969 47.6218 50.8174 49.9865 49.0739 51.73C47.3304 53.4735 44.9657 54.453 42.5 54.453C40.0343 54.453 37.6696 53.4735 35.9261 51.73C34.1826 49.9865 33.2031 47.6218 33.2031 45.1561C33.2031 44.8039 33.0632 44.4661 32.8141 44.217C32.5651 43.9679 32.2272 43.828 31.875 43.828C31.5228 43.828 31.1849 43.9679 30.9359 44.217C30.6868 44.4661 30.5469 44.8039 30.5469 45.1561C30.5474 46.3994 30.2985 47.6301 29.815 48.7755C29.3314 49.9209 28.6231 50.9577 27.7318 51.8245C26.8405 52.6913 25.7845 53.3706 24.6261 53.8221C23.4677 54.2735 22.2305 54.4881 20.9877 54.453C16.0072 54.3169 11.9531 50.047 11.9531 44.937V37.1874C11.9531 36.1307 12.3729 35.1172 13.1201 34.37C13.8673 33.6228 14.8808 33.203 15.9375 33.203H69.0625C70.1192 33.203 71.1327 33.6228 71.8799 34.37C72.6271 35.1172 73.0469 36.1307 73.0469 37.1874V44.9337Z" fill="#834627"/>
</svg>
