<svg width="82" height="85" viewBox="0 0 82 85" fill="none" xmlns="http://www.w3.org/2000/svg">
<path d="M9.13244 27.596V25.873C8.68291 25.873 8.2518 26.0546 7.93394 26.3777C7.61607 26.7008 7.4375 27.139 7.4375 27.596H9.13244ZM46.4211 27.596H48.1161C48.1161 27.139 47.9375 26.7008 47.6196 26.3777C47.3018 26.0546 46.8707 25.873 46.4211 25.873V27.596ZM46.4211 34.4877V32.7648C45.9716 32.7648 45.5405 32.9463 45.2226 33.2694C44.9048 33.5925 44.7262 34.0308 44.7262 34.4877H46.4211ZM9.13244 29.3189H46.4211V25.873H9.13244V29.3189ZM44.7262 27.596V68.9463H48.1161V27.596H44.7262ZM10.8274 62.0546V27.596H7.4375V62.0546H10.8274ZM46.4211 36.2106H63.3705V32.7648H46.4211V36.2106ZM75.2351 48.2712V62.0546H78.625V48.2712H75.2351ZM48.1161 68.9463V34.4877H44.7262V68.9463H48.1161ZM66.9638 72.599C66.0104 73.5669 64.718 74.1106 63.3705 74.1106C62.0231 74.1106 60.7307 73.5669 59.7773 72.599L57.3772 75.0386C58.1642 75.8388 59.0985 76.4736 60.1269 76.9066C61.1552 77.3397 62.2574 77.5626 63.3705 77.5626C64.4836 77.5626 65.5858 77.3397 66.6142 76.9066C67.6425 76.4736 68.5769 75.8388 69.3638 75.0386L66.9638 72.599ZM59.7773 65.2937C60.7307 64.3258 62.0231 63.7821 63.3705 63.7821C64.718 63.7821 66.0104 64.3258 66.9638 65.2937L69.3638 62.8541C68.5769 62.0539 67.6425 61.4191 66.6142 60.9861C65.5858 60.553 64.4836 60.3301 63.3705 60.3301C62.2574 60.3301 61.1552 60.553 60.1269 60.9861C59.0985 61.4191 58.1642 62.0539 57.3772 62.8541L59.7773 65.2937ZM26.2852 72.599C25.3318 73.5669 24.0394 74.1106 22.692 74.1106C21.3445 74.1106 20.0521 73.5669 19.0987 72.599L16.6987 75.0386C17.4856 75.8388 18.42 76.4736 19.4483 76.9066C20.4767 77.3397 21.5789 77.5626 22.692 77.5626C23.8051 77.5626 24.9073 77.3397 25.9356 76.9066C26.964 76.4736 27.8983 75.8388 28.6853 75.0386L26.2852 72.599ZM19.0987 65.2937C20.0521 64.3258 21.3445 63.7821 22.692 63.7821C24.0394 63.7821 25.3318 64.3258 26.2852 65.2937L28.6853 62.8541C27.8983 62.0539 26.964 61.4191 25.9356 60.9861C24.9073 60.553 23.8051 60.3301 22.692 60.3301C21.5789 60.3301 20.4767 60.553 19.4483 60.9861C18.42 61.4191 17.4856 62.0539 16.6987 62.8541L19.0987 65.2937ZM66.9638 65.2937C67.9604 66.2999 68.4554 67.6197 68.4554 68.9463H71.8452C71.8452 66.7444 71.0181 64.5356 69.3638 62.8541L66.9638 65.2937ZM68.4554 68.9463C68.4554 70.273 67.9604 71.5928 66.9638 72.599L69.3638 75.0386C70.1507 74.2385 70.7749 73.2887 71.2007 72.2434C71.6264 71.1981 71.8454 70.0777 71.8452 68.9463H68.4554ZM56.5908 67.2234H46.4211V70.6693H56.5908V67.2234ZM59.7773 72.599C58.8234 71.6306 58.2869 70.3167 58.2857 68.9463H54.8958C54.8958 71.1483 55.723 73.3571 57.3772 75.0386L59.7773 72.599ZM58.2857 68.9463C58.2857 67.6197 58.7806 66.2999 59.7773 65.2937L57.3772 62.8541C56.5903 63.6542 55.9662 64.604 55.5404 65.6493C55.1147 66.6946 54.8956 67.815 54.8958 68.9463H58.2857ZM19.0987 72.599C18.1448 71.6306 17.6083 70.3167 17.6071 68.9463H14.2173C14.2173 71.1483 15.0444 73.3571 16.6987 75.0386L19.0987 72.599ZM17.6071 68.9463C17.6071 67.6197 18.1021 66.2999 19.0987 65.2937L16.6987 62.8541C15.9118 63.6542 15.2876 64.604 14.8618 65.6493C14.4361 66.6946 14.2171 67.815 14.2173 68.9463H17.6071ZM46.4211 67.2234H29.4717V70.6693H46.4211V67.2234ZM26.2852 65.2937C27.2819 66.2999 27.7768 67.6197 27.7768 68.9463H31.1667C31.1667 66.7444 30.3395 64.5356 28.6853 62.8541L26.2852 65.2937ZM27.7768 68.9463C27.7768 70.273 27.2819 71.5928 26.2852 72.599L28.6853 75.0386C29.4722 74.2385 30.0963 73.2887 30.5221 72.2434C30.9478 71.1981 31.1669 70.0777 31.1667 68.9463H27.7768ZM75.2351 62.0546C75.2351 63.4255 74.6994 64.7402 73.7458 65.7095C72.7922 66.6788 71.4989 67.2234 70.1503 67.2234V70.6693C72.3979 70.6693 74.5535 69.7617 76.1428 68.1461C77.7321 66.5305 78.625 64.3394 78.625 62.0546H75.2351ZM63.3705 36.2106C66.5172 36.2106 69.535 37.4813 71.7601 39.7431C73.9851 42.0049 75.2351 45.0725 75.2351 48.2712H78.625C78.625 44.1586 77.0178 40.2145 74.1571 37.3065C71.2963 34.3985 67.4163 32.7648 63.3705 32.7648V36.2106ZM7.4375 62.0546C7.4375 64.3394 8.33037 66.5305 9.91968 68.1461C11.509 69.7617 13.6646 70.6693 15.9122 70.6693V67.2234C14.5636 67.2234 13.2703 66.6788 12.3167 65.7095C11.3631 64.7402 10.8274 63.4255 10.8274 62.0546H7.4375Z" fill="#834627"/>
<path d="M27.7763 24.1501C27.7763 21.4084 26.7049 18.779 24.7977 16.8403C22.8905 14.9016 20.3038 13.8125 17.6067 13.8125C16.7076 13.8125 15.8454 14.1755 15.2097 14.8218C14.5739 15.468 14.2168 16.3445 14.2168 17.2584C14.2168 20.0001 15.2882 22.6295 17.1954 24.5681C19.1026 26.5068 21.6893 27.596 24.3864 27.596H27.7763M27.7763 24.1501V27.596M27.7763 24.1501C27.7763 21.4084 28.8478 18.779 30.7549 16.8403C32.6621 14.9016 35.2488 13.8125 37.946 13.8125C38.845 13.8125 39.7072 14.1755 40.343 14.8218C40.9787 15.468 41.3358 16.3445 41.3358 17.2584C41.3358 20.0001 40.2644 22.6295 38.3572 24.5681C36.45 26.5068 33.8634 27.596 31.1662 27.596H27.7763" stroke="#834627" stroke-width="4" stroke-linejoin="round"/>
</svg>
