<svg width="511" height="514" viewBox="0 0 511 514" fill="none" xmlns="http://www.w3.org/2000/svg">
<g clip-path="url(#clip0_48_2)">
<rect width="511" height="514" fill="#FED3A5"/>
<circle cx="255.44" cy="256.97" r="248" fill="#F6B068" stroke="#894A2B" stroke-width="4"/>
<circle cx="255.44" cy="256.97" r="98" fill="white" stroke="#894A2B" stroke-width="4"/>
<g filter="url(#filter0_d_48_2)">
<path d="M28.6102 254.871L38.0127 219.781C43.5859 198.981 54.5555 190.774 70.9215 195.16C79.0338 197.333 84.8241 202.701 88.2926 211.264C95.5408 202.136 104.919 199.113 116.427 202.197C125.247 204.56 131.459 209.485 135.064 216.972C136.768 220.613 137.66 224.264 137.74 227.926C137.821 231.587 137.09 236.294 135.548 242.048L134.089 247.496L109.257 240.842L110.565 235.961C111.336 233.084 111.525 230.961 111.134 229.592C110.695 228.211 109.556 227.274 107.717 226.781C104.604 225.947 102.403 227.935 101.114 232.746L99.6352 238.264L73.8835 231.364C75.2989 226.082 74.1908 222.954 70.5591 221.981C67.2105 221.083 64.8979 223.017 63.6215 227.78L62.1998 233.086L132.876 252.024L125.179 280.747L28.6102 254.871Z" fill="#834627"/>
</g>
<g filter="url(#filter1_d_48_2)">
<path d="M146.885 129.204L162.754 150.262L155.91 155.419L170.235 174.429L146.487 192.325L108.227 141.552C100.822 131.725 97.7481 122.089 99.0059 112.643C100.273 103.128 105.762 94.7122 115.472 87.3952C124.831 80.3426 133.619 77.603 141.835 79.1761C150.022 80.7102 157.995 86.6248 165.753 96.9197L204.63 148.511L180.881 166.407L143.194 116.395C140.843 113.275 138.842 111.39 137.19 110.739C135.538 110.089 133.757 110.484 131.846 111.923C128.142 114.715 128.376 118.88 132.548 124.417L140.042 134.361L146.885 129.204Z" fill="#834627"/>
</g>
<g filter="url(#filter2_d_48_2)">
<path d="M265.629 80.1391L293.821 83.0767C299.107 91.2369 301.315 99.4936 300.444 107.847C299.432 117.56 295.013 125.347 287.185 131.208C279.407 137.074 270.321 139.465 259.928 138.382C246.427 136.976 235.499 130.658 227.145 119.429C218.791 108.2 215.381 95.2275 216.915 80.5122C218.453 65.7484 224.517 53.9599 235.107 45.1467C245.745 36.3385 258.251 32.6834 272.627 34.1813C277.532 34.6924 282.867 36.2548 288.633 38.8684L285.551 68.4446C281.117 65.7734 276.981 64.2379 273.145 63.8381C266.2 63.1144 260.293 64.6835 255.423 68.5453C250.601 72.4121 247.832 77.7937 247.113 84.6899C246.379 91.7319 247.837 97.5294 251.486 102.083C255.136 106.636 260.433 109.274 267.377 109.998C271.797 110.458 274.141 109.402 274.409 106.828C274.611 104.885 273.256 103.762 270.342 103.458L263.275 102.722L265.629 80.1391Z" fill="#834627"/>
</g>
<g filter="url(#filter3_d_48_2)">
<path d="M403.885 135.92L390.485 153.702L374.985 142.021C372.879 140.434 371.142 139.615 369.775 139.563C368.447 139.54 367.225 140.27 366.108 141.752C364.845 143.429 364.456 144.878 364.941 146.1C365.456 147.283 367.098 148.917 369.866 151.004L385.835 163.037L368.645 185.85L349.985 171.789C341.211 165.177 336.076 158.036 334.58 150.367C333.113 142.658 335.362 134.846 341.327 126.93L364.909 95.6357C370.669 87.9926 377.319 83.7108 384.86 82.7904C392.44 81.8994 400.208 84.4512 408.163 90.4459L428.812 106.005L411.533 128.935L396.383 117.519C392.288 114.433 389.242 114.216 387.244 116.868C386.068 118.428 385.733 119.887 386.238 121.246C386.772 122.565 388.287 124.165 390.783 126.046L403.885 135.92Z" fill="#834627"/>
</g>
<g filter="url(#filter4_d_48_2)">
<path d="M469.988 199.581L477.684 228.304L420.309 243.678C415.828 244.878 413.023 246.388 411.893 248.207C410.823 250.061 410.856 253.111 411.993 257.355L412.392 258.841L384.376 266.348L382.329 258.707C379.523 248.237 380.379 239.262 384.896 231.784C389.46 224.292 397.166 219.093 408.014 216.187L469.988 199.581Z" fill="#834627"/>
</g>
<path d="M357.327 390.464C361.441 395.023 370.138 402.068 372.016 393.774C373.894 385.48 363.006 388.111 357.327 390.464Z" fill="#543937" stroke="#543937"/>
<path d="M399.945 430.758C393.989 429.232 382.837 428.166 385.874 436.111C388.911 444.056 396.52 435.853 399.945 430.758Z" fill="#543937" stroke="#543937"/>
<path d="M352.535 456.333C349.833 461.848 346.528 472.542 354.925 471.201C363.323 469.859 356.831 460.73 352.535 456.333Z" fill="#FED3A5" stroke="#905D43"/>
<path d="M328.41 346.926C326.431 352.734 324.514 363.746 332.687 361.331C340.859 358.917 333.241 350.722 328.41 346.926Z" fill="#543937" stroke="#543937"/>
<path d="M124.357 371.007C130.408 369.918 140.991 366.25 134.912 360.291C128.832 354.331 125.342 364.952 124.357 371.007Z" fill="#543937" stroke="#543937"/>
<path d="M168.657 417.237C167.874 411.153 164.739 400.422 158.464 406.178C152.19 411.933 162.645 415.949 168.657 417.237Z" fill="#FED3A5" stroke="#905D43"/>
<path d="M272.037 391.58C276.151 396.139 284.849 403.184 286.727 394.89C288.605 386.596 277.716 389.227 272.037 391.58Z" fill="#FED3A5" stroke="#905D43"/>
<path d="M227.748 407.387C221.792 405.861 210.64 404.795 213.677 412.74C216.714 420.685 224.323 412.482 227.748 407.387Z" fill="#543937" stroke="#543937"/>
<path d="M242.513 459.333C240.533 465.141 238.616 476.153 246.789 473.739C254.961 471.324 247.343 463.129 242.513 459.333Z" fill="#FED3A5" stroke="#905D43"/>
<path d="M467.364 353.586C461.313 354.675 450.73 358.343 456.81 364.302C462.889 370.262 466.379 359.641 467.364 353.586Z" fill="#543937" stroke="#543937"/>
<path d="M458.362 263.77C459.146 269.855 462.281 280.585 468.556 274.83C474.83 269.075 464.374 265.059 458.362 263.77Z" fill="#543937" stroke="#543937"/>
<path d="M78.7193 115.656C73.3353 118.61 64.477 125.452 72.1158 129.189C79.7546 132.926 79.701 121.724 78.7193 115.656Z" fill="#FED3A5" stroke="#905D43"/>
<path d="M352.625 62.4826C348.511 57.9233 339.813 50.8783 337.935 59.1723C336.057 67.4663 346.946 64.835 352.625 62.4826Z" fill="#FED3A5" stroke="#905D43"/>
<path d="M198.478 110.319C203.037 106.205 210.082 97.5078 201.788 95.6298C193.494 93.7517 196.125 104.64 198.478 110.319Z" fill="#FED3A5" stroke="#905D43"/>
<path d="M395.484 189.311C400.017 185.167 407.005 176.424 398.699 174.6C390.393 172.776 393.095 183.647 395.484 189.311Z" fill="#FED3A5" stroke="#905D43"/>
<path d="M373.658 294.359C379.806 294.455 390.9 292.892 386.086 285.875C381.273 278.857 375.795 288.607 373.658 294.359Z" fill="#543937" stroke="#543937"/>
<path d="M448.556 177.951C454.704 178.047 465.798 176.485 460.985 169.467C456.171 162.45 450.693 172.2 448.556 177.951Z" fill="#543937" stroke="#543937"/>
<path d="M327.773 85.2503C327.677 91.3988 329.239 102.492 336.257 97.6791C343.274 92.866 333.525 87.3878 327.773 85.2503Z" fill="#543937" stroke="#543937"/>
<path d="M72.7727 164.25C72.6767 170.399 74.2392 181.492 81.2567 176.679C88.2742 171.866 78.5246 166.388 72.7727 164.25Z" fill="#543937" stroke="#543937"/>
<path d="M152.72 50.0823C156.189 55.159 163.867 63.3172 166.821 55.3367C169.774 47.3561 158.651 48.5085 152.72 50.0823Z" fill="#543937" stroke="#543937"/>
<path d="M445.789 320.739C447.769 314.931 449.685 303.919 441.513 306.333C433.34 308.748 440.958 316.943 445.789 320.739Z" fill="#FED3A5" stroke="#905D43"/>
<path d="M144.188 318.95C145.278 325.001 148.946 335.584 154.905 329.504C160.864 323.425 150.244 319.935 144.188 318.95Z" fill="#FED3A5" stroke="#905D43"/>
<path d="M75.3316 369.933C69.5238 367.954 58.5118 366.037 60.9262 374.21C63.3405 382.382 71.5358 374.764 75.3316 369.933Z" fill="#FED3A5" stroke="#905D43"/>
<path d="M59.5125 294.333C57.5326 300.141 55.6161 311.153 63.7887 308.739C71.9612 306.324 64.3431 298.129 59.5125 294.333Z" fill="#543937" stroke="#543937"/>
<path d="M123.41 441.926C121.431 447.734 119.514 458.746 127.687 456.331C135.859 453.917 128.241 445.722 123.41 441.926Z" fill="#543937" stroke="#543937"/>
<ellipse cx="54.6023" cy="51.9718" rx="54.6023" ry="51.9718" transform="matrix(0.538639 0.842537 -0.845687 0.533679 388.145 404.756)" fill="#FED3A5"/>
<ellipse cx="59.0525" cy="60.4169" rx="59.0525" ry="60.4169" transform="matrix(0.538639 0.842537 -0.845687 0.533679 429.916 316.444)" fill="#FED3A5"/>
<ellipse cx="54.681" cy="52.8933" rx="54.681" ry="52.8933" transform="matrix(0.715962 0.698139 -0.702771 0.711416 478.701 284)" fill="#FED3A5"/>
<path d="M322.734 497.108C319.823 486.965 316.163 467.298 326.963 451.078C338.156 434.267 340.953 432.745 358.714 426.432C350.886 412.785 341.497 378.359 370.338 354.128C398.221 330.702 422.411 336.937 429.668 340.18C435.098 324.437 456.726 296.363 499.798 310.011" stroke="#894A2B" stroke-width="4"/>
<circle cx="255" cy="257" r="98" fill="#FED3A5" stroke="#894A2B" stroke-width="4"/>
</g>
<defs>
<filter id="filter0_d_48_2" x="18.6104" y="183.771" width="135.62" height="116.976" filterUnits="userSpaceOnUse" color-interpolation-filters="sRGB">
<feFlood flood-opacity="0" result="BackgroundImageFix"/>
<feColorMatrix in="SourceAlpha" type="matrix" values="0 0 0 0 0 0 0 0 0 0 0 0 0 0 0 0 0 0 127 0" result="hardAlpha"/>
<feOffset dy="10"/>
<feGaussianBlur stdDeviation="5"/>
<feComposite in2="hardAlpha" operator="out"/>
<feColorMatrix type="matrix" values="0 0 0 0 1 0 0 0 0 1 0 0 0 0 1 0 0 0 0.25 0"/>
<feBlend mode="normal" in2="BackgroundImageFix" result="effect1_dropShadow_48_2"/>
<feBlend mode="normal" in="SourceGraphic" in2="effect1_dropShadow_48_2" result="shape"/>
</filter>
<filter id="filter1_d_48_2" x="74.8213" y="66.6783" width="139.808" height="145.647" filterUnits="userSpaceOnUse" color-interpolation-filters="sRGB">
<feFlood flood-opacity="0" result="BackgroundImageFix"/>
<feColorMatrix in="SourceAlpha" type="matrix" values="0 0 0 0 0 0 0 0 0 0 0 0 0 0 0 0 0 0 127 0" result="hardAlpha"/>
<feOffset dy="10"/>
<feGaussianBlur stdDeviation="5"/>
<feComposite in2="hardAlpha" operator="out"/>
<feColorMatrix type="matrix" values="0 0 0 0 1 0 0 0 0 1 0 0 0 0 1 0 0 0 0.25 0"/>
<feBlend mode="normal" in2="BackgroundImageFix" result="effect1_dropShadow_48_2"/>
<feBlend mode="normal" in="SourceGraphic" in2="effect1_dropShadow_48_2" result="shape"/>
</filter>
<filter id="filter2_d_48_2" x="201.411" y="28.936" width="116.328" height="133.295" filterUnits="userSpaceOnUse" color-interpolation-filters="sRGB">
<feFlood flood-opacity="0" result="BackgroundImageFix"/>
<feColorMatrix in="SourceAlpha" type="matrix" values="0 0 0 0 0 0 0 0 0 0 0 0 0 0 0 0 0 0 127 0" result="hardAlpha"/>
<feOffset dy="10"/>
<feGaussianBlur stdDeviation="5"/>
<feComposite in2="hardAlpha" operator="out"/>
<feColorMatrix type="matrix" values="0 0 0 0 1 0 0 0 0 1 0 0 0 0 1 0 0 0 0.25 0"/>
<feBlend mode="normal" in2="BackgroundImageFix" result="effect1_dropShadow_48_2"/>
<feBlend mode="normal" in="SourceGraphic" in2="effect1_dropShadow_48_2" result="shape"/>
</filter>
<filter id="filter3_d_48_2" x="312.903" y="71.5363" width="125.909" height="134.313" filterUnits="userSpaceOnUse" color-interpolation-filters="sRGB">
<feFlood flood-opacity="0" result="BackgroundImageFix"/>
<feColorMatrix in="SourceAlpha" type="matrix" values="0 0 0 0 0 0 0 0 0 0 0 0 0 0 0 0 0 0 127 0" result="hardAlpha"/>
<feOffset dy="10"/>
<feGaussianBlur stdDeviation="5"/>
<feComposite in2="hardAlpha" operator="out"/>
<feColorMatrix type="matrix" values="0 0 0 0 1 0 0 0 0 1 0 0 0 0 1 0 0 0 0.25 0"/>
<feBlend mode="normal" in2="BackgroundImageFix" result="effect1_dropShadow_48_2"/>
<feBlend mode="normal" in="SourceGraphic" in2="effect1_dropShadow_48_2" result="shape"/>
</filter>
<filter id="filter4_d_48_2" x="363.419" y="199.581" width="127.526" height="86.7671" filterUnits="userSpaceOnUse" color-interpolation-filters="sRGB">
<feFlood flood-opacity="0" result="BackgroundImageFix"/>
<feColorMatrix in="SourceAlpha" type="matrix" values="0 0 0 0 0 0 0 0 0 0 0 0 0 0 0 0 0 0 127 0" result="hardAlpha"/>
<feOffset dy="10"/>
<feGaussianBlur stdDeviation="5"/>
<feComposite in2="hardAlpha" operator="out"/>
<feColorMatrix type="matrix" values="0 0 0 0 1 0 0 0 0 1 0 0 0 0 1 0 0 0 0.25 0"/>
<feBlend mode="normal" in2="BackgroundImageFix" result="effect1_dropShadow_48_2"/>
<feBlend mode="normal" in="SourceGraphic" in2="effect1_dropShadow_48_2" result="shape"/>
</filter>
<clipPath id="clip0_48_2">
<rect width="511" height="514" fill="white"/>
</clipPath>
</defs>
</svg>
