<svg width="75" height="85" viewBox="0 0 75 85" fill="none" xmlns="http://www.w3.org/2000/svg">
<path d="M67.4807 32.5562C67.4842 28.3749 66.4117 24.2612 64.3638 20.6016C62.316 16.9419 59.3601 13.8563 55.7735 11.6345C52.187 9.41275 48.0876 8.12765 43.8602 7.89991C39.6329 7.67217 35.4163 8.50927 31.6063 10.3326C27.7964 12.1559 24.5182 14.9057 22.0794 18.3236C19.6407 21.7416 18.1215 25.7156 17.6645 29.8725C17.2075 34.0294 17.8277 38.2328 19.4668 42.0881C21.106 45.9433 23.7102 49.3239 27.0352 51.9124V74.8519C27.0352 75.1635 27.1605 75.4623 27.3836 75.6827C27.6067 75.903 27.9092 76.0268 28.2247 76.0268C28.4094 76.0265 28.5915 75.9843 28.7571 75.9034L42.4996 69.1155L56.2452 75.9034C56.4265 75.9924 56.6278 76.0342 56.83 76.0249C57.0323 76.0155 57.2288 75.9554 57.4009 75.8501C57.573 75.7448 57.7151 75.5978 57.8136 75.4232C57.9122 75.2485 57.964 75.0519 57.9641 74.8519V51.9124C60.9293 49.607 63.3263 46.6672 64.9747 43.3145C66.6231 39.9617 67.48 36.2833 67.4807 32.5562ZM55.5849 72.9515L43.029 66.7511C42.8637 66.6694 42.6814 66.6269 42.4966 66.6269C42.3118 66.6269 42.1296 66.6694 41.9643 66.7511L29.4143 72.9515V53.566C33.3475 55.9626 37.8781 57.2318 42.4996 57.2318C47.1212 57.2318 51.6517 55.9626 55.5849 53.566V72.9515ZM42.4996 54.8789C38.0294 54.8789 33.6595 53.5697 29.9427 51.1169C26.2258 48.664 23.3289 45.1777 21.6182 41.0988C19.9075 37.0198 19.4599 32.5315 20.332 28.2013C21.2041 23.8711 23.3567 19.8936 26.5177 16.7717C29.6786 13.6498 33.7059 11.5238 38.0902 10.6624C42.4745 9.80111 47.019 10.2432 51.149 11.9327C55.279 13.6223 58.8089 16.4834 61.2924 20.1544C63.776 23.8253 65.1015 28.1412 65.1015 32.5562C65.0952 38.4747 62.712 44.1489 58.4746 48.3339C54.2373 52.5189 48.4921 54.8727 42.4996 54.8789ZM42.4996 17.2828C39.441 17.2828 36.4511 18.1786 33.908 19.8568C31.3649 21.5351 29.3828 23.9205 28.2123 26.7113C27.0418 29.5022 26.7356 32.5732 27.3323 35.5359C27.929 38.4987 29.4018 41.2201 31.5646 43.3562C33.7273 45.4922 36.4828 46.9469 39.4826 47.5362C42.4825 48.1255 45.5919 47.8231 48.4176 46.667C51.2434 45.511 53.6586 43.5534 55.3579 41.0417C57.0571 38.53 57.9641 35.577 57.9641 32.5562C57.9594 28.5069 56.3286 24.6247 53.4294 21.7614C50.5303 18.8981 46.5996 17.2875 42.4996 17.2828ZM42.4996 45.4799C39.9116 45.4799 37.3817 44.7219 35.2298 43.3019C33.0779 41.8818 31.4008 39.8634 30.4104 37.5019C29.42 35.1404 29.1608 32.5419 29.6657 30.0349C30.1706 27.528 31.4169 25.2252 33.2469 23.4178C35.0769 21.6104 37.4085 20.3795 39.9468 19.8809C42.4851 19.3822 45.1161 19.6381 47.5072 20.6163C49.8982 21.5945 51.9418 23.2509 53.3797 25.3762C54.8175 27.5015 55.5849 30.0002 55.5849 32.5562C55.581 35.9826 54.2011 39.2675 51.748 41.6904C49.2949 44.1132 45.9689 45.476 42.4996 45.4799Z" fill="#834627"/>
</svg>
