<svg width="215" height="35" viewBox="0 0 215 35" fill="none" xmlns="http://www.w3.org/2000/svg">
<path d="M17.5 0L22.6921 11.8332L35 13.3686L25.9004 22.2153L28.3158 34.9982L17.5 28.6332L6.68419 35L9.0996 22.2171L0 13.3668L12.3095 11.8314L17.5 0Z" fill="#EAB308"/>
<path d="M62.5 0L67.6921 11.8332L80 13.3686L70.9004 22.2153L73.3158 34.9982L62.5 28.6332L51.6842 35L54.0996 22.2171L45 13.3668L57.3095 11.8314L62.5 0Z" fill="#EAB308"/>
<path d="M107.5 0L112.692 11.8332L125 13.3686L115.9 22.2153L118.316 34.9982L107.5 28.6332L96.6842 35L99.0996 22.2171L90 13.3668L102.31 11.8314L107.5 0Z" fill="#EAB308"/>
<path d="M152.5 0L157.692 11.8332L170 13.3686L160.9 22.2153L163.316 34.9982L152.5 28.6332L141.684 35L144.1 22.2171L135 13.3668L147.31 11.8314L152.5 0Z" fill="#EAB308"/>
<path d="M197.5 0L202.692 11.8332L215 13.3686L205.9 22.2153L208.316 34.9982L197.5 28.6332L186.684 35L189.1 22.2171L180 13.3668L192.31 11.8314L197.5 0Z" fill="#EAB308"/>
</svg>
